<svg width="45" height="39" viewBox="0 0 45 39" fill="none" xmlns="http://www.w3.org/2000/svg">
<path d="M31.2639 16.1095C29.534 17.9475 27.4163 19.6085 26.5513 20.2572L27.7663 22.5588C28.4204 22.0885 30.1287 21.4992 32.8911 20.8018C35.086 20.2342 36.7402 19.7639 37.8647 19.3909C38.9837 19.0179 40.0865 18.4827 41.1894 17.7961C42.2868 17.1096 43.0112 16.4608 43.3734 15.8608C43.7356 15.2553 43.914 14.5742 43.914 13.8065C43.914 12.7091 43.541 11.8063 42.7949 11.0819C42.0543 10.3629 41.1515 10.0007 40.1028 10.0007C38.0214 10.0007 35.0752 12.0387 31.2639 16.1095Z" fill="#FF0000"/>
<path d="M17.2453 22.6128C16.5209 22.1749 15.1153 21.7262 13.007 21.2667C9.82826 20.5909 7.02254 19.6503 4.56822 18.4556C2.11389 17.2608 0.892136 15.8391 0.892136 14.2011C0.892136 13.2172 1.20028 12.3036 1.82197 11.471C2.44366 10.6385 3.31402 10.2223 4.44388 10.2223C5.66023 10.2223 6.96848 10.6277 8.36323 11.444C9.76338 12.2603 11.4501 13.7902 13.4232 16.0337C15.499 18.3985 17.1334 19.8836 18.3265 20.4914L17.2453 22.6128Z" fill="#FF0000"/>
<path d="M19.982 20.8909C20.2308 20.6516 20.4793 20.4126 20.6729 20.1481C20.9972 19.7048 21.1648 19.1858 21.1648 18.5642C21.1648 17.8181 20.8134 16.1369 20.116 13.5312C18.9916 9.31992 18.424 6.20607 18.424 4.18423C18.424 2.99492 18.7429 2.00562 19.3916 1.20553C20.0404 0.410855 21.0405 0 22.4028 0C23.7381 0 24.7382 0.394637 25.3923 1.18932C26.0518 1.97859 26.3762 2.98951 26.3762 4.21667C26.3762 6.2331 25.7707 9.34154 24.5544 13.5312C23.8083 16.1423 23.4407 17.7965 23.4407 18.4993C23.4407 19.1804 23.6191 19.7318 23.9705 20.1643C24.1892 20.4334 24.4643 20.6698 24.7398 20.9064C25.1561 21.264 25.5733 21.6224 25.7979 22.0958L26.3961 23.3568C26.515 23.6075 26.5942 23.8765 26.6733 24.1453C26.7654 24.4584 26.8575 24.7713 27.0122 25.0549C27.1397 25.2885 27.3209 25.5102 27.5547 25.7217C28.0683 26.1812 29.5603 26.6839 32.0255 27.2299C36.2854 28.1922 39.3614 29.2193 41.2589 30.3005C43.1564 31.3817 44.1079 32.7603 44.1079 34.4199C44.1079 35.4903 43.7349 36.3985 42.9834 37.1337C42.232 37.8689 41.3562 38.2365 40.3453 38.2365C39.2695 38.2365 38.0694 37.8581 36.7503 37.0959C35.4312 36.3336 33.2742 34.4307 30.2901 31.3871C30.0836 31.1755 29.8853 30.9742 29.6953 30.7832C28.9616 29.8819 28.1378 29.1164 27.2449 28.5152C27.1801 28.4656 27.1194 28.421 27.0627 28.3814C26.8133 28.2092 26.5675 28.0713 26.3267 27.9684C25.1372 27.3488 23.8475 27.0096 22.5001 27.0096C20.0128 27.0096 17.7219 28.1653 15.8958 30.1074C15.1482 30.7824 14.2209 31.6558 13.1153 32.7278C10.7582 34.9983 9.00129 36.485 7.839 37.1878C6.68212 37.896 5.59011 38.2473 4.56297 38.2473C3.6007 38.2473 2.76817 37.8743 2.05999 37.1283C1.3518 36.3823 0.995004 35.4524 0.995004 34.3388C0.995004 33.5063 1.22746 32.7819 1.70319 32.1548C2.17892 31.5277 3.10335 30.8844 4.46566 30.1978C5.82797 29.5221 7.66061 28.8409 9.95816 28.1652C12.2503 27.4894 13.8397 27.0353 14.7208 26.8191C16.6422 26.3301 17.798 25.7199 18.1828 24.9884C18.2992 24.7669 18.349 24.5194 18.3987 24.2716C18.4272 24.1296 18.4558 23.9876 18.4969 23.8503L18.9819 22.2305C19.1406 21.7001 19.5618 21.2951 19.982 20.8909Z" fill="#242831"/>
</svg>
